<?xml version="1.0" standalone="no"?>
<!DOCTYPE svg PUBLIC "-//W3C//DTD SVG 20010904//EN"
 "http://www.w3.org/TR/2001/REC-SVG-20010904/DTD/svg10.dtd">
<svg version="1.0" xmlns="http://www.w3.org/2000/svg"
 width="700.000000pt" height="700.000000pt" viewBox="0 0 700.000000 700.000000"
 preserveAspectRatio="xMidYMid meet">
<metadata>
Created by potrace 1.11, written by Peter Selinger 2001-2013
</metadata>
<g transform="translate(0.000000,700.000000) scale(0.100000,-0.100000)"
fill="#000000" stroke="none">
<path d="M3465 6340 c-45 -10 -71 -27 -99 -63 -22 -28 -186 -357 -366 -732
-26 -55 -111 -228 -187 -385 -77 -157 -170 -348 -207 -426 l-68 -140 -92 -13
c-50 -7 -100 -15 -111 -17 -23 -5 -36 -7 -215 -34 -74 -12 -144 -22 -155 -24
-11 -2 -38 -6 -60 -10 -77 -11 -120 -17 -147 -22 -58 -9 -85 -13 -133 -19 -27
-3 -57 -8 -65 -10 -13 -4 -265 -43 -315 -50 -11 -1 -40 -5 -65 -9 -25 -4 -57
-9 -72 -12 -16 -2 -40 -6 -55 -8 -16 -3 -46 -7 -68 -11 -23 -3 -50 -7 -60 -9
-11 -2 -40 -7 -65 -11 -64 -10 -148 -54 -177 -91 -30 -40 -34 -124 -8 -175 9
-19 314 -331 677 -695 l660 -661 -6 -39 c-13 -76 -17 -100 -26 -149 -8 -46
-13 -73 -26 -160 -3 -16 -9 -52 -14 -80 -6 -27 -12 -67 -16 -89 -3 -21 -7 -48
-10 -60 -4 -24 -62 -365 -70 -411 -2 -16 -9 -52 -14 -80 -5 -27 -12 -70 -15
-95 -4 -24 -8 -47 -10 -50 -1 -3 -6 -27 -9 -55 -4 -27 -9 -57 -11 -65 -2 -8
-6 -33 -10 -55 -9 -62 -28 -173 -40 -235 -3 -13 -7 -40 -10 -60 -3 -19 -9 -57
-13 -85 -15 -93 3 -235 29 -235 5 0 9 -9 9 -19 0 -15 11 -22 44 -29 61 -13
123 -1 176 35 25 16 83 50 130 75 47 25 112 60 145 78 33 18 87 47 120 65 33
18 80 44 105 57 25 14 101 56 170 93 69 37 148 80 175 95 131 72 178 97 422
229 l263 142 117 -62 c65 -34 150 -78 188 -99 39 -20 124 -65 190 -100 66 -34
152 -79 190 -100 39 -21 120 -63 180 -95 152 -79 291 -153 350 -185 28 -15
109 -58 180 -95 72 -37 156 -83 187 -102 46 -29 67 -35 112 -35 46 -1 61 3 83
23 82 76 80 152 -21 719 -3 14 -10 54 -16 90 -7 36 -13 74 -15 85 -1 11 -15
90 -29 175 -29 164 -34 197 -42 245 -2 17 -9 53 -14 80 -5 28 -12 66 -14 85
-3 19 -8 45 -10 56 -2 12 -7 39 -10 60 -4 22 -11 66 -17 99 -5 33 -12 69 -14
80 -1 11 -8 47 -14 80 -6 33 -13 78 -16 100 -4 22 -8 47 -11 57 -6 19 -13 10
255 288 115 118 232 240 261 270 29 30 114 118 189 195 361 372 535 556 557
588 13 20 30 60 38 89 22 87 -6 139 -98 182 -47 22 -102 33 -316 66 -41 6 -88
14 -105 17 -16 2 -41 6 -55 8 -14 2 -54 8 -90 14 -36 6 -83 13 -105 16 -22 3
-67 10 -100 15 -33 6 -136 22 -230 36 -223 33 -234 35 -256 39 -10 2 -69 11
-131 20 -62 9 -124 18 -138 21 -14 2 -74 11 -135 20 -60 9 -111 17 -112 18 -1
0 -47 96 -103 211 -56 116 -145 298 -197 405 -53 107 -126 258 -163 335 -317
658 -367 752 -411 776 -30 15 -93 25 -124 19z"/>
</g>
</svg>
